<?xml version="1.0" encoding="UTF-8"?>
<svg xmlns="http://www.w3.org/2000/svg" xmlns:xlink="http://www.w3.org/1999/xlink" width="37px" height="37px" viewBox="0 0 37 37" version="1.1">
<g id="surface1">
<path style=" stroke:none;fill-rule:nonzero;fill:rgb(0%,0%,0%);fill-opacity:1;" d="M 18.234375 0.0429688 C 18.140625 0.0859375 0.59375 13.773438 0.273438 14.054688 C 0.0429688 14.265625 -0.0351562 14.511719 0.0351562 14.792969 C 0.0859375 15.015625 2.652344 17.648438 2.976562 17.820312 C 3.230469 17.949219 3.425781 17.949219 3.6875 17.8125 L 3.902344 17.699219 L 3.902344 35.554688 L 2.242188 35.554688 C 0.9375 35.554688 0.527344 35.578125 0.367188 35.65625 C -0.109375 35.910156 -0.109375 36.644531 0.367188 36.898438 C 0.671875 37.050781 36.328125 37.050781 36.632812 36.898438 C 37.109375 36.644531 37.109375 35.910156 36.632812 35.65625 C 36.472656 35.578125 36.0625 35.554688 34.757812 35.554688 L 33.097656 35.554688 L 33.097656 32.121094 C 33.097656 28.445312 33.089844 28.40625 32.730469 28.210938 C 32.476562 28.082031 32.273438 28.082031 32.019531 28.210938 C 31.660156 28.40625 31.652344 28.445312 31.652344 32.121094 L 31.652344 35.554688 L 8.816406 35.554688 L 8.816406 32.085938 C 8.816406 28.371094 8.816406 28.335938 8.449219 28.140625 C 8.195312 28.011719 7.992188 28.011719 7.738281 28.140625 C 7.371094 28.335938 7.371094 28.371094 7.371094 32.085938 L 7.371094 35.554688 L 5.347656 35.554688 L 5.363281 26.039062 L 5.382812 16.527344 L 11.945312 11.402344 L 18.5 6.28125 L 25.0625 11.402344 L 31.617188 16.519531 L 31.652344 20.089844 C 31.675781 22.054688 31.71875 23.726562 31.753906 23.796875 C 31.824219 23.949219 32.164062 24.136719 32.375 24.136719 C 32.613281 24.136719 32.917969 23.949219 33.011719 23.738281 C 33.074219 23.601562 33.097656 22.742188 33.097656 20.625 L 33.097656 17.699219 L 33.3125 17.8125 C 33.558594 17.945312 33.769531 17.949219 33.988281 17.84375 C 34.210938 17.726562 36.769531 15.175781 36.898438 14.945312 C 37.050781 14.648438 37.023438 14.410156 36.789062 14.148438 C 36.675781 14.019531 35.632812 13.179688 34.484375 12.285156 L 32.382812 10.660156 L 32.382812 6.960938 C 32.375 4.25 32.351562 3.207031 32.289062 3.070312 C 32.113281 2.6875 31.992188 2.671875 29.554688 2.671875 C 27.1875 2.671875 26.992188 2.695312 26.839844 3.011719 C 26.804688 3.085938 26.761719 3.835938 26.738281 4.675781 L 26.703125 6.214844 L 25.796875 5.507812 C 22.257812 2.722656 18.949219 0.152344 18.8125 0.0859375 C 18.652344 0 18.390625 -0.015625 18.234375 0.0429688 Z M 26.566406 7.933594 C 30.980469 11.382812 34.714844 14.300781 34.875 14.429688 L 35.15625 14.664062 L 34.398438 15.421875 C 33.988281 15.839844 33.617188 16.1875 33.589844 16.1875 C 33.566406 16.1875 30.230469 13.601562 26.1875 10.441406 C 22.113281 7.261719 18.738281 4.683594 18.628906 4.660156 C 18.515625 4.632812 18.339844 4.652344 18.234375 4.710938 C 18.117188 4.769531 14.75 7.371094 10.746094 10.5 C 6.742188 13.628906 3.441406 16.1875 3.410156 16.1875 C 3.382812 16.1875 3.019531 15.847656 2.601562 15.429688 C 2.117188 14.945312 1.871094 14.648438 1.914062 14.605469 C 2.050781 14.476562 18.464844 1.664062 18.5 1.664062 C 18.523438 1.664062 22.148438 4.488281 26.566406 7.933594 Z M 30.929688 6.800781 C 30.929688 8.917969 30.90625 9.46875 30.84375 9.421875 C 30.792969 9.386719 30.171875 8.917969 29.46875 8.359375 L 28.183594 7.363281 L 28.183594 4.117188 L 30.929688 4.117188 Z M 30.929688 6.800781 "/>
<path style=" stroke:none;fill-rule:nonzero;fill:rgb(0%,0%,0%);fill-opacity:1;" d="M 11.207031 15.855469 C 10.832031 16.066406 10.847656 15.777344 10.839844 23.398438 C 10.839844 31.117188 10.824219 30.800781 11.238281 30.988281 C 11.375 31.050781 13.167969 31.074219 18.507812 31.074219 C 26.203125 31.074219 25.886719 31.089844 26.074219 30.675781 C 26.195312 30.402344 26.195312 16.425781 26.074219 16.152344 C 25.886719 15.738281 26.203125 15.753906 18.484375 15.753906 C 12.726562 15.761719 11.34375 15.777344 11.207031 15.855469 Z M 17.777344 19.945312 L 17.777344 22.691406 L 12.285156 22.691406 L 12.285156 17.199219 L 17.777344 17.199219 Z M 24.714844 19.945312 L 24.714844 22.691406 L 19.222656 22.691406 L 19.222656 17.199219 L 24.714844 17.199219 Z M 17.777344 26.882812 L 17.777344 29.628906 L 12.285156 29.628906 L 12.285156 24.136719 L 17.777344 24.136719 Z M 24.714844 26.882812 L 24.714844 29.628906 L 19.222656 29.628906 L 19.222656 24.136719 L 24.714844 24.136719 Z M 24.714844 26.882812 "/>
<path style=" stroke:none;fill-rule:nonzero;fill:rgb(0%,0%,0%);fill-opacity:1;" d="M 7.625 25.386719 C 7.5 25.488281 7.421875 25.648438 7.394531 25.84375 C 7.355469 26.101562 7.386719 26.175781 7.574219 26.382812 C 7.753906 26.585938 7.839844 26.628906 8.09375 26.628906 C 8.347656 26.628906 8.433594 26.585938 8.613281 26.382812 C 8.800781 26.175781 8.832031 26.101562 8.792969 25.84375 C 8.742188 25.453125 8.476562 25.21875 8.09375 25.21875 C 7.90625 25.21875 7.746094 25.277344 7.625 25.386719 Z M 7.625 25.386719 "/>
<path style=" stroke:none;fill-rule:nonzero;fill:rgb(0%,0%,0%);fill-opacity:1;" d="M 32.019531 25.683594 C 31.390625 26.03125 31.660156 27.027344 32.375 27.027344 C 32.742188 27.027344 33.097656 26.671875 33.097656 26.3125 C 33.097656 25.769531 32.496094 25.414062 32.019531 25.683594 Z M 32.019531 25.683594 "/>
</g>
</svg>
