<?xml version="1.0" encoding="UTF-8"?>
<svg xmlns="http://www.w3.org/2000/svg" xmlns:xlink="http://www.w3.org/1999/xlink" width="37px" height="37px" viewBox="0 0 37 37" version="1.1">
<g id="surface1">
<path style=" stroke:none;fill-rule:nonzero;fill:rgb(0%,0%,0%);fill-opacity:1;" d="M 1.394531 6.242188 C 0.714844 6.460938 0.230469 6.953125 0.0703125 7.59375 C 0.0234375 7.820312 0 11.121094 0.015625 18.679688 L 0.0351562 29.449219 L 0.253906 29.839844 C 0.375 30.054688 0.601562 30.324219 0.75 30.4375 C 1.375 30.886719 0.167969 30.859375 18.5 30.859375 C 36.832031 30.859375 35.625 30.886719 36.25 30.4375 C 36.398438 30.324219 36.632812 30.054688 36.746094 29.839844 L 36.964844 29.449219 L 36.964844 7.550781 L 36.746094 7.160156 C 36.632812 6.945312 36.398438 6.675781 36.25 6.5625 C 35.625 6.113281 36.839844 6.140625 18.472656 6.148438 C 4.886719 6.148438 1.640625 6.171875 1.394531 6.242188 Z M 34.253906 7.6875 C 34.195312 7.738281 30.820312 10.277344 26.761719 13.320312 C 21.808594 17.03125 19.289062 18.875 19.101562 18.925781 C 18.746094 19.027344 18.253906 19.027344 17.898438 18.925781 C 17.710938 18.875 15.191406 17.03125 10.238281 13.320312 C 6.179688 10.277344 2.804688 7.738281 2.746094 7.6875 C 2.660156 7.601562 5.015625 7.585938 18.5 7.585938 C 31.984375 7.585938 34.339844 7.601562 34.253906 7.6875 Z M 9.25 14.34375 C 13.441406 17.488281 17.011719 20.117188 17.183594 20.183594 C 17.359375 20.257812 17.71875 20.351562 17.992188 20.394531 C 18.601562 20.496094 19.34375 20.394531 19.910156 20.132812 C 20.105469 20.039062 23.703125 17.386719 27.894531 14.242188 L 35.519531 8.519531 L 35.539062 13.46875 C 35.546875 16.195312 35.546875 20.652344 35.539062 23.371094 L 35.519531 28.320312 L 31.507812 23.371094 C 29.304688 20.644531 27.445312 18.382812 27.382812 18.347656 C 27.1875 18.246094 26.824219 18.269531 26.628906 18.398438 C 26.425781 18.535156 26.289062 18.882812 26.347656 19.128906 C 26.375 19.230469 28.226562 21.578125 30.46875 24.347656 L 34.542969 29.375 L 26.523438 29.398438 C 22.105469 29.40625 14.894531 29.40625 10.476562 29.398438 L 2.457031 29.375 L 6.53125 24.347656 C 8.773438 21.578125 10.625 19.230469 10.652344 19.128906 C 10.710938 18.882812 10.574219 18.535156 10.371094 18.398438 C 10.1875 18.28125 9.855469 18.246094 9.648438 18.328125 C 9.589844 18.355469 7.738281 20.589844 5.550781 23.296875 C 3.359375 26 1.539062 28.25 1.511719 28.285156 C 1.472656 28.328125 1.445312 24.0625 1.445312 18.433594 C 1.445312 10.523438 1.46875 8.527344 1.539062 8.570312 C 1.582031 8.605469 5.058594 11.203125 9.25 14.34375 Z M 9.25 14.34375 "/>
</g>
</svg>
