<?xml version="1.0" encoding="UTF-8"?>
<svg xmlns="http://www.w3.org/2000/svg" xmlns:xlink="http://www.w3.org/1999/xlink" width="37px" height="37px" viewBox="0 0 37 37" version="1.1">
<g id="surface1">
<path style=" stroke:none;fill-rule:nonzero;fill:rgb(0%,0%,0%);fill-opacity:1;" d="M 17.660156 1.039062 L 17.414062 1.285156 L 17.414062 3.535156 L 16.289062 3.554688 L 15.160156 3.578125 L 14.953125 3.816406 L 14.742188 4.046875 L 14.742188 15.539062 L 9.105469 15.539062 L 9.105469 14.394531 C 9.105469 13.464844 9.082031 13.21875 8.976562 13.007812 C 8.757812 12.574219 8.765625 12.574219 5.757812 12.589844 L 3.019531 12.609375 L 2.847656 12.8125 L 2.671875 13.015625 L 2.671875 34.757812 L 1.625 34.757812 C 0.46875 34.757812 0.238281 34.816406 0.0859375 35.15625 C -0.0585938 35.476562 -0.015625 35.699219 0.246094 35.960938 L 0.492188 36.203125 L 36.507812 36.203125 L 36.753906 35.960938 C 37.015625 35.699219 37.058594 35.476562 36.914062 35.15625 C 36.753906 34.808594 36.539062 34.757812 35.230469 34.757812 L 34.039062 34.757812 L 34.039062 22.820312 L 33.828125 22.613281 C 33.601562 22.386719 33.226562 22.328125 32.945312 22.476562 C 32.585938 22.667969 32.59375 22.539062 32.59375 28.871094 L 32.59375 34.757812 L 27.390625 34.757812 L 27.390625 28.457031 L 27.179688 28.25 L 26.96875 28.039062 L 24.351562 28.039062 C 22.699219 28.039062 21.695312 28.066406 21.601562 28.109375 C 21.253906 28.300781 21.246094 28.40625 21.246094 31.6875 L 21.246094 34.757812 L 16.1875 34.757812 L 16.1875 4.984375 L 32.59375 4.984375 L 32.59375 10.917969 C 32.59375 15.140625 32.613281 16.894531 32.671875 17.003906 C 32.902344 17.460938 33.472656 17.5625 33.828125 17.207031 L 34.039062 16.996094 L 34.039062 4.046875 L 33.828125 3.816406 L 33.617188 3.578125 L 32.605469 3.554688 L 31.59375 3.535156 L 31.566406 2.429688 C 31.542969 1.226562 31.472656 1.003906 31.101562 0.867188 C 30.996094 0.824219 28.371094 0.796875 24.410156 0.796875 L 17.90625 0.796875 Z M 30.121094 2.90625 L 30.140625 3.539062 L 18.859375 3.539062 L 18.859375 2.242188 L 24.484375 2.253906 L 30.097656 2.277344 Z M 7.660156 14.777344 L 7.660156 15.539062 L 4.117188 15.539062 L 4.117188 14.019531 L 7.660156 14.019531 Z M 14.742188 25.871094 L 14.742188 34.757812 L 11.714844 34.757812 L 11.691406 32.953125 L 11.671875 31.148438 L 11.46875 30.953125 L 11.273438 30.75 L 9.488281 30.726562 C 7.675781 30.707031 7.421875 30.734375 7.210938 30.988281 C 7.140625 31.066406 7.109375 31.585938 7.082031 32.910156 L 7.046875 34.722656 L 5.585938 34.746094 L 4.117188 34.757812 L 4.117188 16.984375 L 14.742188 16.984375 Z M 25.945312 32.121094 L 25.945312 34.757812 L 22.691406 34.757812 L 22.691406 29.484375 L 25.945312 29.484375 Z M 10.261719 33.460938 L 10.261719 34.757812 L 8.527344 34.757812 L 8.527344 32.15625 L 10.261719 32.15625 Z M 10.261719 33.460938 "/>
<path style=" stroke:none;fill-rule:nonzero;fill:rgb(0%,0%,0%);fill-opacity:1;" d="M 6.238281 18.703125 C 6.148438 18.71875 6 18.8125 5.898438 18.910156 L 5.710938 19.101562 L 5.710938 23.914062 C 5.710938 29.273438 5.679688 28.972656 6.207031 29.128906 C 6.429688 29.195312 6.519531 29.1875 6.714844 29.085938 C 7.160156 28.855469 7.15625 28.941406 7.15625 23.921875 C 7.15625 18.710938 7.175781 18.875 6.589844 18.722656 C 6.480469 18.695312 6.324219 18.6875 6.238281 18.703125 Z M 6.238281 18.703125 "/>
<path style=" stroke:none;fill-rule:nonzero;fill:rgb(0%,0%,0%);fill-opacity:1;" d="M 9.199219 18.703125 C 9.113281 18.71875 8.960938 18.8125 8.859375 18.910156 L 8.671875 19.101562 L 8.671875 23.914062 C 8.671875 29.273438 8.644531 28.972656 9.171875 29.128906 C 9.394531 29.195312 9.480469 29.1875 9.675781 29.085938 C 10.125 28.855469 10.117188 28.933594 10.117188 23.976562 C 10.117188 19.511719 10.09375 19.050781 9.871094 18.867188 C 9.734375 18.753906 9.394531 18.667969 9.199219 18.703125 Z M 9.199219 18.703125 "/>
<path style=" stroke:none;fill-rule:nonzero;fill:rgb(0%,0%,0%);fill-opacity:1;" d="M 12.164062 18.703125 C 12.074219 18.71875 11.921875 18.8125 11.824219 18.910156 L 11.632812 19.101562 L 11.632812 23.914062 C 11.632812 29.28125 11.605469 28.972656 12.140625 29.128906 C 12.378906 29.203125 12.453125 29.195312 12.660156 29.074219 C 12.804688 28.992188 12.9375 28.839844 12.984375 28.6875 C 13.09375 28.363281 13.117188 19.613281 13.007812 19.214844 C 12.964844 19.070312 12.886719 18.910156 12.835938 18.867188 C 12.695312 18.753906 12.359375 18.667969 12.164062 18.703125 Z M 12.164062 18.703125 "/>
<path style=" stroke:none;fill-rule:nonzero;fill:rgb(0%,0%,0%);fill-opacity:1;" d="M 18.890625 7.832031 L 18.636719 8.085938 L 18.660156 9.898438 L 18.679688 11.722656 L 18.882812 11.894531 C 19.085938 12.070312 19.085938 12.070312 20.914062 12.070312 L 22.734375 12.070312 L 23.125 11.664062 L 23.125 9.851562 C 23.125 8.027344 23.125 8.027344 22.953125 7.828125 L 22.777344 7.625 L 20.957031 7.601562 L 19.144531 7.582031 Z M 21.679688 9.828125 L 21.679688 10.625 L 20.089844 10.625 L 20.089844 9.03125 L 21.679688 9.03125 Z M 21.679688 9.828125 "/>
<path style=" stroke:none;fill-rule:nonzero;fill:rgb(0%,0%,0%);fill-opacity:1;" d="M 25.785156 7.703125 C 25.675781 7.761719 25.554688 7.871094 25.507812 7.949219 C 25.464844 8.027344 25.4375 8.789062 25.4375 9.863281 L 25.4375 11.648438 L 25.648438 11.859375 L 25.855469 12.070312 L 29.5 12.070312 L 29.707031 11.859375 L 29.917969 11.648438 L 29.917969 9.90625 C 29.917969 8.035156 29.890625 7.871094 29.550781 7.6875 C 29.253906 7.539062 26.066406 7.542969 25.785156 7.703125 Z M 28.472656 9.828125 L 28.472656 10.625 L 26.882812 10.625 L 26.882812 9.03125 L 28.472656 9.03125 Z M 28.472656 9.828125 "/>
<path style=" stroke:none;fill-rule:nonzero;fill:rgb(0%,0%,0%);fill-opacity:1;" d="M 18.882812 14.121094 L 18.679688 14.292969 L 18.660156 16.117188 L 18.636719 17.929688 L 19.136719 18.429688 L 20.839844 18.429688 C 22.65625 18.429688 22.878906 18.390625 23.054688 18.074219 C 23.097656 17.988281 23.125 17.226562 23.125 16.128906 L 23.125 14.332031 L 22.9375 14.136719 L 22.742188 13.945312 L 20.914062 13.945312 C 19.085938 13.945312 19.085938 13.945312 18.882812 14.121094 Z M 21.679688 16.1875 L 21.679688 16.984375 L 20.089844 16.984375 L 20.089844 15.390625 L 21.679688 15.390625 Z M 21.679688 16.1875 "/>
<path style=" stroke:none;fill-rule:nonzero;fill:rgb(0%,0%,0%);fill-opacity:1;" d="M 25.625 14.171875 L 25.4375 14.394531 L 25.4375 16.171875 C 25.4375 18.101562 25.453125 18.144531 25.847656 18.347656 C 26.074219 18.464844 29.265625 18.457031 29.519531 18.339844 C 29.890625 18.175781 29.917969 18.007812 29.917969 16.117188 L 29.917969 14.367188 L 29.707031 14.15625 L 29.5 13.945312 L 25.8125 13.945312 Z M 28.472656 16.1875 L 28.472656 16.984375 L 26.882812 16.984375 L 26.882812 15.390625 L 28.472656 15.390625 Z M 28.472656 16.1875 "/>
<path style=" stroke:none;fill-rule:nonzero;fill:rgb(0%,0%,0%);fill-opacity:1;" d="M 32.859375 19.4375 C 32.503906 19.722656 32.5625 20.386719 32.945312 20.59375 C 33.414062 20.839844 34.039062 20.496094 34.039062 19.980469 C 34.039062 19.410156 33.3125 19.078125 32.859375 19.4375 Z M 32.859375 19.4375 "/>
<path style=" stroke:none;fill-rule:nonzero;fill:rgb(0%,0%,0%);fill-opacity:1;" d="M 19.011719 20.335938 C 18.671875 20.523438 18.652344 20.660156 18.644531 22.460938 C 18.644531 24.246094 18.679688 24.46875 19 24.640625 C 19.085938 24.6875 19.835938 24.714844 20.914062 24.714844 L 22.675781 24.714844 L 22.902344 24.527344 L 23.125 24.339844 L 23.125 20.652344 L 22.914062 20.445312 L 22.707031 20.234375 L 20.941406 20.234375 C 19.628906 20.242188 19.144531 20.261719 19.011719 20.335938 Z M 21.679688 22.476562 L 21.679688 23.269531 L 20.089844 23.269531 L 20.089844 21.679688 L 21.679688 21.679688 Z M 21.679688 22.476562 "/>
<path style=" stroke:none;fill-rule:nonzero;fill:rgb(0%,0%,0%);fill-opacity:1;" d="M 25.828125 20.304688 C 25.460938 20.453125 25.4375 20.566406 25.4375 22.496094 L 25.4375 24.296875 L 25.648438 24.503906 L 25.855469 24.714844 L 29.5 24.714844 L 29.707031 24.503906 L 29.917969 24.296875 L 29.917969 22.511719 C 29.917969 21.425781 29.890625 20.675781 29.84375 20.589844 C 29.671875 20.269531 29.449219 20.234375 27.664062 20.242188 C 26.738281 20.242188 25.90625 20.269531 25.828125 20.304688 Z M 28.472656 22.476562 L 28.472656 23.269531 L 26.882812 23.269531 L 26.882812 21.679688 L 28.472656 21.679688 Z M 28.472656 22.476562 "/>
</g>
</svg>
