<?xml version="1.0" encoding="UTF-8"?>
<svg xmlns="http://www.w3.org/2000/svg" xmlns:xlink="http://www.w3.org/1999/xlink" width="37px" height="37px" viewBox="0 0 37 37" version="1.1">
<g id="surface1">
<path style=" stroke:none;fill-rule:nonzero;fill:rgb(0%,0%,0%);fill-opacity:1;" d="M 6.621094 0.109375 C 6.035156 0.261719 5.433594 0.59375 4.820312 1.121094 C 4.140625 1.707031 1.707031 4.183594 1.308594 4.695312 C -0.304688 6.757812 -0.332031 9.957031 1.226562 14.09375 C 3.128906 19.144531 6.691406 24.257812 11.203125 28.414062 C 17.414062 34.144531 25.742188 37.851562 30.027344 36.8125 C 30.664062 36.660156 31.71875 36.167969 32.203125 35.800781 C 32.691406 35.433594 35.960938 32.078125 36.261719 31.636719 C 36.828125 30.820312 37.042969 29.730469 36.828125 28.804688 C 36.582031 27.773438 36.5 27.679688 33.359375 24.527344 C 30.183594 21.355469 30.085938 21.273438 29.035156 21.058594 C 28.207031 20.882812 27.359375 21.035156 26.542969 21.507812 C 26.355469 21.621094 25.460938 22.4375 24.554688 23.335938 L 22.914062 24.953125 L 22.386719 24.679688 C 21.09375 24.007812 20.140625 23.363281 18.71875 22.191406 C 17.257812 20.992188 15.21875 18.890625 14.09375 17.414062 C 13.273438 16.347656 12.074219 14.375 12.070312 14.105469 C 12.070312 14.054688 12.632812 13.464844 13.320312 12.789062 C 14.765625 11.382812 15.335938 10.722656 15.660156 10.101562 C 16.066406 9.316406 16.144531 8.316406 15.863281 7.492188 C 15.582031 6.65625 15.304688 6.335938 12.546875 3.570312 C 9.8125 0.839844 9.394531 0.476562 8.613281 0.210938 C 8.070312 0.015625 7.175781 -0.0273438 6.621094 0.109375 Z M 8.296875 2.140625 C 8.5 2.253906 9.65625 3.347656 11.207031 4.90625 C 14.019531 7.726562 14.128906 7.855469 14.121094 8.601562 C 14.121094 9.257812 13.945312 9.488281 12.0625 11.375 C 11.105469 12.320312 10.277344 13.195312 10.21875 13.320312 C 10.132812 13.46875 10.109375 13.679688 10.132812 14.035156 C 10.152344 14.46875 10.210938 14.632812 10.652344 15.507812 C 11.648438 17.488281 12.964844 19.230469 15.140625 21.457031 C 17.300781 23.667969 19.453125 25.316406 21.671875 26.457031 C 22.460938 26.859375 22.613281 26.917969 22.972656 26.910156 C 23.21875 26.910156 23.480469 26.859375 23.632812 26.78125 C 23.769531 26.710938 24.664062 25.871094 25.617188 24.925781 C 26.847656 23.703125 27.445312 23.160156 27.679688 23.058594 C 28.109375 22.863281 28.675781 22.863281 29.074219 23.058594 C 29.507812 23.277344 34.617188 28.378906 34.839844 28.828125 C 34.960938 29.066406 35.011719 29.28125 35.011719 29.59375 C 35.011719 30.335938 34.859375 30.539062 32.808594 32.597656 C 30.777344 34.636719 30.589844 34.773438 29.507812 35.019531 C 28.457031 35.25 26.703125 35.0625 24.925781 34.535156 C 22.214844 33.734375 18.570312 31.8125 15.574219 29.601562 C 9.800781 25.351562 4.84375 18.855469 2.78125 12.847656 C 1.800781 9.996094 1.691406 7.949219 2.441406 6.429688 C 2.671875 5.949219 2.890625 5.703125 4.394531 4.175781 C 5.320312 3.238281 6.207031 2.382812 6.359375 2.277344 C 7.007812 1.828125 7.675781 1.777344 8.296875 2.140625 Z M 8.296875 2.140625 "/>
</g>
</svg>
